
<svg xmlns="http://www.w3.org/2000/svg" version="1.1" xmlns:xlink="http://www.w3.org/1999/xlink" xmlns:svgjs="http://svgjs.dev/svgjs" width="128" height="128" viewBox="0 0 128 128"><g transform="matrix(0.5597826086956522,0,0,0.5597826086956522,28.153050507453642,12.760752631578946)"><svg viewBox="0 0 66 95" data-background-color="#00f5d0" preserveAspectRatio="xMidYMid meet" height="184" width="128" xmlns="http://www.w3.org/2000/svg" xmlns:xlink="http://www.w3.org/1999/xlink"><g id="tight-bounds" transform="matrix(1,0,0,1,0.01921682626539223,-0.24049999999999727)"><svg viewBox="0 0 65.96156634746922 95.481" height="95.481" width="65.96156634746922"><g><svg viewBox="0 0 65.96156634746922 95.481" height="95.481" width="65.96156634746922"><g><svg viewBox="0 0 65.96156634746922 95.481" height="95.481" width="65.96156634746922"><g><svg viewBox="0 0 65.96156634746922 95.481" height="95.481" width="65.96156634746922"><g id="textblocktransform"><svg viewBox="0 0 65.96156634746922 95.481" height="95.481" width="65.96156634746922" id="textblock"><g><svg viewBox="0 0 65.96156634746922 95.481" height="95.481" width="65.96156634746922"><g transform="matrix(1,0,0,1,0,0)"><svg width="65.96156634746922" viewBox="4.49 -35.69 24.659999999999997 35.69" height="95.481" data-palette-color="#000000"><path d="M12.06-29.49L12.06-18.9 14.55-18.9Q18.04-18.9 19.78-20.28 21.51-21.66 21.51-24.29L21.51-24.29Q21.51-26.95 20.06-28.22 18.6-29.49 15.5-29.49L15.5-29.49 12.06-29.49ZM29.15-24.56L29.15-24.56Q29.15-18.8 25.55-15.75 21.95-12.7 15.31-12.7L15.31-12.7 12.06-12.7 12.06 0 4.49 0 4.49-35.69 15.89-35.69Q22.39-35.69 25.77-32.9 29.15-30.1 29.15-24.56Z" opacity="1" transform="matrix(1,0,0,1,0,0)" fill="#00f5d0" class="wordmark-text-0" data-fill-palette-color="primary" id="text-0"></path></svg></g></svg></g></svg></g></svg></g><g></g></svg></g></svg></g><defs></defs></svg><rect width="65.96156634746922" height="95.481" fill="none" stroke="none" visibility="hidden"></rect></g></svg></g></svg>